{"title":"Overboard (1987) DVDRip XviD AC3 peaSoup","uid":8947575,"size":734359552,"categoryP":"video","categoryS":"movies","magnet":"?xt=urn:btih:8f0902894dab38cb36f8bd99b3bb08ea12167726&amp;dn=Overboard+%281987%29+DVDRip+XviD+AC3+peaSoup&amp;tr=udp%3A%2F%2Ftracker.openbittorrent.com%3A80&amp;tr=udp%3A%2F%2Fopen.demonii.com%3A1337&amp;tr=udp%3A%2F%2Ftracker.coppersurfer.tk%3A6969&amp;tr=udp%3A%2F%2Fexodus.desync.com%3A6969","seeders":3,"leechers":1,"uploader":"peaSoup","files":-1,"time":1379808702,"description":"Storyline\n\nRich bitch Joanna hires country carpenter Dean to build a closet on her yacht. When the two don't see eye-to-eye, Dean is left unpaid while Joanna sets sail. The following day, Joanna is fished out of the sea, after falling overboard, suffering from amnesia. Dean sees a neat way to regain the money she owes him... he tells her she's his wife; that way Dean gets a free housekeeper and mother for his four kids. &lt;a href=&quot; http://imageshack.us/a/img600/2296/eybd.jpg&quot; rel=&quot;nofollow&quot; target=&quot;_NEW&quot;&gt; http://imageshack.us/a/img600/2296/eybd.jpg&lt;/a&gt;                                         &lt;a href=&quot; http://imageshack.us/a/img833/6990/ez3e.jpg&quot; rel=&quot;nofollow&quot; target=&quot;_NEW&quot;&gt; http://imageshack.us/a/img833/6990/ez3e.jpg&lt;/a&gt;                                         &lt;a href=&quot; http://imageshack.us/a/img560/9846/ge7u.jpg&quot; rel=&quot;nofollow&quot; target=&quot;_NEW&quot;&gt; http://imageshack.us/a/img560/9846/ge7u.jpg&lt;/a&gt;                                         &lt;a href=&quot; http://imageshack.us/a/img802/1918/y5ma.jpg&quot; rel=&quot;nofollow&quot; target=&quot;_NEW&quot;&gt; http://imageshack.us/a/img802/1918/y5ma.jpg&lt;/a&gt;                                         &lt;a href=&quot; http://imageshack.us/a/img842/1299/gffw.jpg&quot; rel=&quot;nofollow&quot; target=&quot;_NEW&quot;&gt; http://imageshack.us/a/img842/1299/gffw.jpg&lt;/a&gt;                                          Format                                   : AVI\nFormat/Info                              : Audio Video Interleave\nFile size                                : 700 MiB\nDuration                                 : 1h 47mn\nOverall bit rate                         : 911 Kbps\nWriting application                      : VirtualDubMod 1.5.4.1 (build 2178/release)\nWriting library                          : VirtualDubMod build 2178/release\n\nVideo\nID                                       : 0\nFormat                                   : MPEG-4 Visual\nFormat profile                           : Advanced Simple@L5\nFormat settings, BVOP                    : 1\nFormat settings, QPel                    : No\nFormat settings, GMC                     : No warppoints\nFormat settings, Matrix                  : Custom\nCodec ID                                 : XVID\nCodec ID/Hint                            : XviD\nDuration                                 : 1h 47mn\nBit rate                                 : 712 Kbps\nWidth                                    : 720 pixels\nHeight                                   : 384 pixels\nDisplay aspect ratio                     : 1.85:1\nFrame rate                               : 25.000 fps\nColor space                              : YUV\nChroma subsampling                       : 4:2:0\nBit depth                                : 8 bits\nScan type                                : Progressive\nCompression mode                         : Lossy\nBits/(Pixel*Frame)                       : 0.103\nStream size                              : 547 MiB (78%)\nWriting library                          : XviD 1.2.1 (UTC 2008-12-04)\n\nAudio\nID                                       : 1\nFormat                                   : AC-3\nFormat/Info                              : Audio Coding 3\nFormat profile                           : Dolby Digital\nMode extension                           : CM (complete main)\nFormat settings, Endianness              : Big\nCodec ID                                 : 2000\nDuration                                 : 1h 47mn\nBit rate mode                            : Constant\nBit rate                                 : 192 Kbps\nChannel(s)                               : 2 channels\nChannel positions                        : Front: L R\nSampling rate                            : 48.0 KHz\nBit depth                                : 16 bits\nCompression mode                         : Lossy\nStream size                              : 148 MiB (21%)\nAlignment                                : Split accross interleaves\nInterleave, duration                     : 96 ms (2.40 video frames)\nInterleave, preload duration             : 96 ms\nLanguage                                 : English\n\n","torrent":{"xt":"urn:btih:8f0902894dab38cb36f8bd99b3bb08ea12167726","amp;dn":"Overboard+%281987%29+DVDRip+XviD+AC3+peaSoup","amp;tr":["udp%3A%2F%2Ftracker.openbittorrent.com%3A80","udp%3A%2F%2Fopen.demonii.com%3A1337","udp%3A%2F%2Ftracker.coppersurfer.tk%3A6969","udp%3A%2F%2Fexodus.desync.com%3A6969"],"infoHash":"8f0902894dab38cb36f8bd99b3bb08ea12167726","infoHashBuffer":{"type":"Buffer","data":[143,9,2,137,77,171,56,203,54,248,189,153,179,187,8,234,18,22,119,38]},"announce":[],"urlList":[]}}